<svg xmlns="http://www.w3.org/2000/svg" viewBox="-32 -32 576 576"><path stroke="#000000" stroke-width="40" stroke-linecap="round" stroke-linejoin="round" d="m21,21v135.125h135.125v-135.125h-135.125zm167.4375,0v135.125h135.125v-135.125h-135.125zm167.4375,0v135.125h135.125v-135.125h-135.125zm-334.875,167.4375v135.125h135.125v-135.125h-135.125zm167.4375,0v135.125h135.125v-135.125h-135.125zm167.4375,0v135.125h135.125v-135.125h-135.125zm-334.875,167.4375v135.125h135.125v-135.125h-135.125zm167.4375,0v135.125h135.125v-135.125h-135.125zm167.4375,0v135.125h135.125v-135.125h-135.125z"/><path fill="#FFFFFF" d="m21,21v135.125h135.125v-135.125h-135.125zm167.4375,0v135.125h135.125v-135.125h-135.125zm167.4375,0v135.125h135.125v-135.125h-135.125zm-334.875,167.4375v135.125h135.125v-135.125h-135.125zm167.4375,0v135.125h135.125v-135.125h-135.125zm167.4375,0v135.125h135.125v-135.125h-135.125zm-334.875,167.4375v135.125h135.125v-135.125h-135.125zm167.4375,0v135.125h135.125v-135.125h-135.125zm167.4375,0v135.125h135.125v-135.125h-135.125z"/></svg>