<svg xmlns="http://www.w3.org/2000/svg" viewBox="-32 -32 576 576"><path stroke="#000000" stroke-width="40" stroke-linecap="round" stroke-linejoin="round" d="M418.4 23.98c-87.5-7.58-164.6 2.58-228 35.99l11.3 83.23-181.56 71.3-5.99 43.4L294.5 490.4l57-2.2 146.4-114c-60.4-73.4-22.3-118.9-45.6-161.2-48-86.8-45.2-133.74-33.9-189.02z"/><path fill="#FFFFFF" d="M418.4 23.98c-87.5-7.58-164.6 2.58-228 35.99l11.3 83.23-181.56 71.3-5.99 43.4L294.5 490.4l57-2.2 146.4-114c-60.4-73.4-22.3-118.9-45.6-161.2-48-86.8-45.2-133.74-33.9-189.02z"/></svg>