<svg xmlns="http://www.w3.org/2000/svg" viewBox="-32 -32 576 576"><path stroke="#000000" stroke-width="40" stroke-linecap="round" stroke-linejoin="round" d="M130.458 203.435L226.656 58.38 448 107.084v92.378l40.823 49.164-13.937 107.434-67.182 85.268L281.328 448 288 352l-64-48-23.835 80L112 352l-36.342-77.936 13.39-71.775-54.041-27.343L24.779 112l24.384 49.054L112 176z"/><path fill="#FFFFFF" d="M130.458 203.435L226.656 58.38 448 107.084v92.378l40.823 49.164-13.937 107.434-67.182 85.268L281.328 448 288 352l-64-48-23.835 80L112 352l-36.342-77.936 13.39-71.775-54.041-27.343L24.779 112l24.384 49.054L112 176z"/></svg>