<svg xmlns="http://www.w3.org/2000/svg" viewBox="-32 -32 576 576"><path stroke="#000000" stroke-width="40" stroke-linecap="round" stroke-linejoin="round" d="M247 28v80h18V28zm35 0v64l80-32zm-26 96c-48 48-144 112-192 128 0 64-16 208-32 240h160c16-16 64-144 64-192 0 48 48 176 64 192h160c-16-32-32-176-32-240-48-16-144-80-192-128zM112 300h80v80h-80z"/><path fill="#FFFFFF" d="M247 28v80h18V28zm35 0v64l80-32zm-26 96c-48 48-144 112-192 128 0 64-16 208-32 240h160c16-16 64-144 64-192 0 48 48 176 64 192h160c-16-32-32-176-32-240-48-16-144-80-192-128zM112 300h80v80h-80z"/></svg>