<svg xmlns="http://www.w3.org/2000/svg" viewBox="-32 -32 576 576"><path stroke="#000000" stroke-width="40" stroke-linecap="round" stroke-linejoin="round" d="M256 20a104 104 0 0 0-104 104 104 104 0 0 0 104 104 104 104 0 0 0 104-104A104 104 0 0 0 256 20zM16 256v240h48c64-160 320-160 384 0h48V256h-48v64h-60v-64h-48v64h-60v-64h-48v64h-60v-64h-48v64H64v-64H16z"/><path fill="#FFFFFF" d="M256 20a104 104 0 0 0-104 104 104 104 0 0 0 104 104 104 104 0 0 0 104-104A104 104 0 0 0 256 20zM16 256v240h48c64-160 320-160 384 0h48V256h-48v64h-60v-64h-48v64h-60v-64h-48v64h-60v-64h-48v64H64v-64H16z"/></svg>