<svg xmlns="http://www.w3.org/2000/svg" viewBox="-32 -32 576 576"><path stroke="#000000" stroke-width="40" stroke-linecap="round" stroke-linejoin="round" d="M256 73.32L74.6 155.1l82.3 37.1 173.2-85.5L256 73.32zm95.4 42.98l-173.2 85.5 77.8 35.1 181.4-81.8-86-38.8zM61.7 169v182L247 434.6v-182L61.7 169zm388.6 0L265 252.6v182L450.3 351V169z"/><path fill="#FFFFFF" d="M256 73.32L74.6 155.1l82.3 37.1 173.2-85.5L256 73.32zm95.4 42.98l-173.2 85.5 77.8 35.1 181.4-81.8-86-38.8zM61.7 169v182L247 434.6v-182L61.7 169zm388.6 0L265 252.6v182L450.3 351V169z"/></svg>