<svg xmlns="http://www.w3.org/2000/svg" viewBox="-32 -32 576 576"><path stroke="#000000" stroke-width="40" stroke-linecap="round" stroke-linejoin="round" d="M256 16C106 76 46 226 46 226c0 45 60 90 90 90 90 0 180-195 135-285l-15-15zm45 15c30 60 0 135 0 135 120 30 120 180 75 330 75-75 90-150 90-210 0-90-15-225-165-255z"/><path fill="#FFFFFF" d="M256 16C106 76 46 226 46 226c0 45 60 90 90 90 90 0 180-195 135-285l-15-15zm45 15c30 60 0 135 0 135 120 30 120 180 75 330 75-75 90-150 90-210 0-90-15-225-165-255z"/></svg>