<svg xmlns="http://www.w3.org/2000/svg" viewBox="-32 -32 576 576"><path stroke="#000000" stroke-width="40" stroke-linecap="round" stroke-linejoin="round" d="M96 64L64 96l48 48-48 48h128V64l-48 48-48-48zm224 0v128h128l-48-48 48-48-32-32-48 48-48-48zM64 320l48 48-48 48 32 32 48-48 48 48V320H64zm256 0v128l48-48 48 48 32-32-48-48 48-48H320z"/><path fill="#FFFFFF" d="M96 64L64 96l48 48-48 48h128V64l-48 48-48-48zm224 0v128h128l-48-48 48-48-32-32-48 48-48-48zM64 320l48 48-48 48 32 32 48-48 48 48V320H64zm256 0v128l48-48 48 48 32-32-48-48 48-48H320z"/></svg>