<svg xmlns="http://www.w3.org/2000/svg" viewBox="-32 -32 576 576"><path stroke="#000000" stroke-width="40" stroke-linecap="round" stroke-linejoin="round" d="M46 16c-15 0-30 15-30 30v240h60l60 60 60-60 60 60 60-60 60 60 60-60h60V46c0-15-15-30-30-30H46zm211.75 360.03A60 60 0 0 0 196 436a60 60 0 0 0 120 0 60 60 0 0 0-58.25-59.97z"/><path fill="#FFFFFF" d="M46 16c-15 0-30 15-30 30v240h60l60 60 60-60 60 60 60-60 60 60 60-60h60V46c0-15-15-30-30-30H46zm211.75 360.03A60 60 0 0 0 196 436a60 60 0 0 0 120 0 60 60 0 0 0-58.25-59.97z"/></svg>