<svg xmlns="http://www.w3.org/2000/svg" viewBox="-32 -32 576 576"><path stroke="#000000" stroke-width="40" stroke-linecap="round" stroke-linejoin="round" d="M105 41v398h302V41H105zm55 174c18.1 0 33 14.9 33 33s-14.9 33-33 33-33-14.9-33-33 14.9-33 33-33zm0 18c-8.4 0-15 6.6-15 15s6.6 15 15 15 15-6.6 15-15-6.6-15-15-15zM73 457v30h366v-30H73z"/><path fill="#FFFFFF" d="M105 41v398h302V41H105zm55 174c18.1 0 33 14.9 33 33s-14.9 33-33 33-33-14.9-33-33 14.9-33 33-33zm0 18c-8.4 0-15 6.6-15 15s6.6 15 15 15 15-6.6 15-15-6.6-15-15-15zM73 457v30h366v-30H73z"/></svg>