<svg xmlns="http://www.w3.org/2000/svg" viewBox="-32 -32 576 576"><path stroke="#000000" stroke-width="40" stroke-linecap="round" stroke-linejoin="round" d="M153 35v58h206V35H153zm60.3 13h32l-16 32-16-32zm74.7 0l16 32h-32l16-32zm-183 89v350h142V137H105zm160 0v350h142V137H265zm173 141v84h52v-84h-52zm26 26a16 16 0 0 1 16 16 16 16 0 0 1-16 16 16 16 0 0 1-16-16 16 16 0 0 1 16-16z"/><path fill="#FFFFFF" d="M153 35v58h206V35H153zm60.3 13h32l-16 32-16-32zm74.7 0l16 32h-32l16-32zm-183 89v350h142V137H105zm160 0v350h142V137H265zm173 141v84h52v-84h-52zm26 26a16 16 0 0 1 16 16 16 16 0 0 1-16 16 16 16 0 0 1-16-16 16 16 0 0 1 16-16z"/></svg>