<svg xmlns="http://www.w3.org/2000/svg" viewBox="-32 -32 576 576"><path stroke="#000000" stroke-width="40" stroke-linecap="round" stroke-linejoin="round" d="M64 64v128l48-48 48 48 32-32-48-48 48-48H64zm256 0l48 48-48 48 32 32 48-48 48 48V64H320zM64 320v128h128l-48-48 48-48-32-32-48 48-48-48zm288 0l-32 32 48 48-48 48h128V320l-48 48-48-48z"/><path fill="#FFFFFF" d="M64 64v128l48-48 48 48 32-32-48-48 48-48H64zm256 0l48 48-48 48 32 32 48-48 48 48V64H320zM64 320v128h128l-48-48 48-48-32-32-48 48-48-48zm288 0l-32 32 48 48-48 48h128V320l-48 48-48-48z"/></svg>