<svg xmlns="http://www.w3.org/2000/svg" viewBox="-32 -32 576 576"><path stroke="#000000" stroke-width="40" stroke-linecap="round" stroke-linejoin="round" d="M256 23C127.425 23 23 127.425 23 256s104.425 233 233 233 233-104.425 233-233S384.575 23 256 23zM149.268 71.287h213.168L256 256h213.17L362.732 440.713 256 256 149.564 440.713 42.83 256H256L149.268 71.287z"/><path fill="#FFFFFF" d="M256 23C127.425 23 23 127.425 23 256s104.425 233 233 233 233-104.425 233-233S384.575 23 256 23zM149.268 71.287h213.168L256 256h213.17L362.732 440.713 256 256 149.564 440.713 42.83 256H256L149.268 71.287z"/></svg>