<svg xmlns="http://www.w3.org/2000/svg" viewBox="-32 -32 576 576"><path stroke="#000000" stroke-width="40" stroke-linecap="round" stroke-linejoin="round" d="M256 26.2L52 135h408L256 26.2zM73 153v14h366v-14H73zm16 32v206h30V185H89zm101.334 0v206h30V185h-30zm101.332 0v206h30V185h-30zM393 185v206h30V185h-30zM73 409v30h366v-30H73zm-32 48v30h430v-30H41z"/><path fill="#FFFFFF" d="M256 26.2L52 135h408L256 26.2zM73 153v14h366v-14H73zm16 32v206h30V185H89zm101.334 0v206h30V185h-30zm101.332 0v206h30V185h-30zM393 185v206h30V185h-30zM73 409v30h366v-30H73zm-32 48v30h430v-30H41z"/></svg>