<svg xmlns="http://www.w3.org/2000/svg" viewBox="-32 -32 576 576"><path stroke="#000000" stroke-width="40" stroke-linecap="round" stroke-linejoin="round" d="M190.8 25.24l175.1 1.08-.1 215.08 27.3-.9 78 19.9-97.3 76.3-20.5 68.7-84.7 81.4c-106.1-3.9-179.25-36.3-227.72-90l31.21-136.1 44.61-40.2 117.8-2.1c-.5-50.9-50.7-91.8-109.5-130.92l47 3.81z"/><path fill="#FFFFFF" d="M190.8 25.24l175.1 1.08-.1 215.08 27.3-.9 78 19.9-97.3 76.3-20.5 68.7-84.7 81.4c-106.1-3.9-179.25-36.3-227.72-90l31.21-136.1 44.61-40.2 117.8-2.1c-.5-50.9-50.7-91.8-109.5-130.92l47 3.81z"/></svg>