<svg xmlns="http://www.w3.org/2000/svg" viewBox="-32 -32 576 576"><path stroke="#000000" stroke-width="40" stroke-linecap="round" stroke-linejoin="round" d="M256 21.98c-64 48-128 68-224.03 100.02C31.97 234 112 394 256 490c144-96 224-250 224-362-96-32.02-160-58.02-224-106.02zM229 128h54v101h101v54H283v101h-54V283H128v-54h101V128z"/><path fill="#FFFFFF" d="M256 21.98c-64 48-128 68-224.03 100.02C31.97 234 112 394 256 490c144-96 224-250 224-362-96-32.02-160-58.02-224-106.02zM229 128h54v101h101v54H283v101h-54V283H128v-54h101V128z"/></svg>