<svg xmlns="http://www.w3.org/2000/svg" viewBox="-32 -32 576 576"><path stroke="#000000" stroke-width="40" stroke-linecap="round" stroke-linejoin="round" d="M410.7 119.7v182.1l27.4 25.9-105.9 154.6-73.9-41.8-5.4-39.7L74.66 296.4l36.64-29L62.47 253l50.33-78.4-.8-61.8-47.25-60.96 38.15-19.05 99-3.05S307.1 83.8 310.1 83.09c3.1-.81 91.5-36.58 91.5-36.58l47.9 23.61z"/><path fill="#FFFFFF" d="M410.7 119.7v182.1l27.4 25.9-105.9 154.6-73.9-41.8-5.4-39.7L74.66 296.4l36.64-29L62.47 253l50.33-78.4-.8-61.8-47.25-60.96 38.15-19.05 99-3.05S307.1 83.8 310.1 83.09c3.1-.81 91.5-36.58 91.5-36.58l47.9 23.61z"/></svg>