<svg xmlns="http://www.w3.org/2000/svg" viewBox="-32 -32 576 576"><path stroke="#000000" stroke-width="40" stroke-linecap="round" stroke-linejoin="round" d="M30.6 191.3L74.85 34.64C143.1 9.374 223.8 16.21 284.1 36.89l3 143.21 114 11.2 25.5 100.5 54.8-5.2-27 154.5-81.8 56.2-125.2-18 57.7-110.2C192.5 316.9 84.23 263.2 30.6 191.3z"/><path fill="#FFFFFF" d="M30.6 191.3L74.85 34.64C143.1 9.374 223.8 16.21 284.1 36.89l3 143.21 114 11.2 25.5 100.5 54.8-5.2-27 154.5-81.8 56.2-125.2-18 57.7-110.2C192.5 316.9 84.23 263.2 30.6 191.3z"/></svg>