<svg xmlns="http://www.w3.org/2000/svg" viewBox="-32 -32 576 576"><path stroke="#000000" stroke-width="40" stroke-linecap="round" stroke-linejoin="round" d="M24 80v352h64V288H72V80H24zm96 0v208h-16v144h64V288h-16V80h-32zm80 0v208h-16v144h64V288h-16V80h-32zm80 0v208h-16v144h64V80h-48zm64 0v352h64V288h-16V80h-48zm96 0v208h-16v144h64V80h-48z"/><path fill="#FFFFFF" d="M24 80v352h64V288H72V80H24zm96 0v208h-16v144h64V288h-16V80h-32zm80 0v208h-16v144h64V288h-16V80h-32zm80 0v208h-16v144h64V80h-48zm64 0v352h64V288h-16V80h-48zm96 0v208h-16v144h64V80h-48z"/></svg>