<svg xmlns="http://www.w3.org/2000/svg" viewBox="-32 -32 576 576"><path stroke="#000000" stroke-width="40" stroke-linecap="round" stroke-linejoin="round" d="M304 30c-32 64-22.35 180.063 0 208 42.406 53.007 80 80 80 128 0 32-16 80-48 112v16H176v-16c-32.002-31.995-48-80-48-112 0-48 37.594-74.993 80-128 22.35-27.937 32-144 0-208 48-16 48-16 96 0z"/><path fill="#FFFFFF" d="M304 30c-32 64-22.35 180.063 0 208 42.406 53.007 80 80 80 128 0 32-16 80-48 112v16H176v-16c-32.002-31.995-48-80-48-112 0-48 37.594-74.993 80-128 22.35-27.937 32-144 0-208 48-16 48-16 96 0z"/></svg>