<svg xmlns="http://www.w3.org/2000/svg" viewBox="-32 -32 576 576"><path stroke="#000000" stroke-width="40" stroke-linecap="round" stroke-linejoin="round" d="M18 112v39h38v-39zm102 0v39h48v-39zm112 0v39h48v-39zm112 0v39h48v-39zm112 0v39h38v-39zM18 169v30h476v-30zm0 48v78h38v-78zm102 0v78h48v-78zm112 0v78h48v-78zm112 0v78h48v-78zm112 0v78h38v-78zM18 313v30h476v-30zm0 48v39h38v-39zm102 0v39h48v-39zm112 0v39h48v-39zm112 0v39h48v-39zm112 0v39h38v-39z"/><path fill="#FFFFFF" d="M18 112v39h38v-39zm102 0v39h48v-39zm112 0v39h48v-39zm112 0v39h48v-39zm112 0v39h38v-39zM18 169v30h476v-30zm0 48v78h38v-78zm102 0v78h48v-78zm112 0v78h48v-78zm112 0v78h48v-78zm112 0v78h38v-78zM18 313v30h476v-30zm0 48v39h38v-39zm102 0v39h48v-39zm112 0v39h48v-39zm112 0v39h48v-39zm112 0v39h38v-39z"/></svg>