<svg xmlns="http://www.w3.org/2000/svg" viewBox="-32 -32 576 576"><path stroke="#000000" stroke-width="40" stroke-linecap="round" stroke-linejoin="round" d="M160.72 16C136 16.11 136 17.875 136 46v300c0 30 0 30 30 30h180c30 0 30 0 30-30V46c0-30 0-30-30-30H166c-1.875 0-3.633-.007-5.28 0zM196 76h120v210H196V76zm-46.656 345A13.333 13.333 0 0 0 136 434.344v48.312A13.333 13.333 0 0 0 149.344 496h213.312A13.333 13.333 0 0 0 376 482.656v-48.312A13.333 13.333 0 0 0 362.656 421H149.344z"/><path fill="#FFFFFF" d="M160.72 16C136 16.11 136 17.875 136 46v300c0 30 0 30 30 30h180c30 0 30 0 30-30V46c0-30 0-30-30-30H166c-1.875 0-3.633-.007-5.28 0zM196 76h120v210H196V76zm-46.656 345A13.333 13.333 0 0 0 136 434.344v48.312A13.333 13.333 0 0 0 149.344 496h213.312A13.333 13.333 0 0 0 376 482.656v-48.312A13.333 13.333 0 0 0 362.656 421H149.344z"/></svg>