<svg xmlns="http://www.w3.org/2000/svg" viewBox="-32 -32 576 576"><path stroke="#000000" stroke-width="40" stroke-linecap="round" stroke-linejoin="round" d="M256 16c-7.5 67.5-37.5 150-37.5 180 0 15 15 30 37.5 30s37.5-15 37.5-30c0-30-30-112.5-37.5-180zm-60 202.5c-30 0-112.5 30-180 37.5 67.5 7.5 150 37.5 180 37.5 15 0 30-15 30-37.5s-15-37.5-30-37.5zm120 0c-15 0-30 15-30 37.5s15 37.5 30 37.5c30 0 112.5-30 180-37.5-67.5-7.5-150-37.5-180-37.5zM256 286c-22.5 0-37.5 15-37.5 30 0 30 30 112.5 37.5 180 7.5-67.5 37.5-150 37.5-180 0-15-15-30-37.5-30z"/><path fill="#FFFFFF" d="M256 16c-7.5 67.5-37.5 150-37.5 180 0 15 15 30 37.5 30s37.5-15 37.5-30c0-30-30-112.5-37.5-180zm-60 202.5c-30 0-112.5 30-180 37.5 67.5 7.5 150 37.5 180 37.5 15 0 30-15 30-37.5s-15-37.5-30-37.5zm120 0c-15 0-30 15-30 37.5s15 37.5 30 37.5c30 0 112.5-30 180-37.5-67.5-7.5-150-37.5-180-37.5zM256 286c-22.5 0-37.5 15-37.5 30 0 30 30 112.5 37.5 180 7.5-67.5 37.5-150 37.5-180 0-15-15-30-37.5-30z"/></svg>