<svg xmlns="http://www.w3.org/2000/svg" viewBox="-32 -32 576 576"><path stroke="#000000" stroke-width="40" stroke-linecap="round" stroke-linejoin="round" d="M256 18.365L50.14 136 256 253.635 461.86 136 256 18.365zm-154 168L50.14 216 256 333.635 461.86 216 410 186.365l-154 88-154-88zm0 80L50.14 296 256 413.635 461.86 296 410 266.365l-154 88-154-88zm0 80L50.14 376 256 493.635 461.86 376 410 346.365l-154 88-154-88z"/><path fill="#FFFFFF" d="M256 18.365L50.14 136 256 253.635 461.86 136 256 18.365zm-154 168L50.14 216 256 333.635 461.86 216 410 186.365l-154 88-154-88zm0 80L50.14 296 256 413.635 461.86 296 410 266.365l-154 88-154-88zm0 80L50.14 376 256 493.635 461.86 376 410 346.365l-154 88-154-88z"/></svg>