<svg xmlns="http://www.w3.org/2000/svg" viewBox="-32 -32 576 576"><path stroke="#000000" stroke-width="40" stroke-linecap="round" stroke-linejoin="round" d="M22.5 93v326h467V93zm15.1 169.44a6.6 6.6 0 1 1 6.6-6.6 6.6 6.6 0 0 1-6.6 6.6zM427.5 401h-377V109h377zm29-133.32a11.85 11.85 0 1 1 11.85-11.85 11.85 11.85 0 0 1-11.85 11.85z"/><path fill="#FFFFFF" d="M22.5 93v326h467V93zm15.1 169.44a6.6 6.6 0 1 1 6.6-6.6 6.6 6.6 0 0 1-6.6 6.6zM427.5 401h-377V109h377zm29-133.32a11.85 11.85 0 1 1 11.85-11.85 11.85 11.85 0 0 1-11.85 11.85z"/></svg>